<svg xmlns="http://www.w3.org/2000/svg" viewBox="0 0 1000 700" font-family="'Segoe UI', system-ui, sans-serif">
  <!-- Fond -->
  <rect x="1" y="1" width="998" height="698" rx="24" fill="#fffaf2" stroke="rgba(24,58,42,0.16)" stroke-width="2"/>

  <!-- Titre -->
  <text x="40" y="52" font-size="28" font-weight="700" fill="#183a2a">Historique Git — projet APIConnection</text>
  <text x="40" y="80" font-size="17" fill="#6a7d72">7 commits · 29 avril → 4 juin 2026 · dépôt poussé sur GitHub</text>

  <!-- Axe vertical -->
  <line x1="178" y1="108" x2="178" y2="648" stroke="#2eb861" stroke-width="4"/>

  <!-- ===== Commit 1 ===== -->
  <text x="152" y="124" text-anchor="end" font-size="17" font-weight="700" fill="#183a2a">29 avr.</text>
  <text x="152" y="143" text-anchor="end" font-size="13" fill="#6a7d72" font-family="'Consolas', monospace">64d636b</text>
  <circle cx="178" cy="130" r="11" fill="#2eb861" stroke="#fffaf2" stroke-width="3"/>
  <line x1="178" y1="130" x2="208" y2="130" stroke="#2eb861" stroke-width="3"/>
  <rect x="208" y="103" width="540" height="54" rx="12" fill="#ffffff" stroke="rgba(46,184,97,0.45)" stroke-width="1.5"/>
  <rect x="208" y="103" width="8" height="54" rx="4" fill="#2eb861"/>
  <text x="232" y="136" font-size="20" fill="#27483b">Initialisation du dépôt — first commit</text>

  <!-- ===== Commit 2 ===== -->
  <text x="152" y="204" text-anchor="end" font-size="17" font-weight="700" fill="#183a2a">30 avr.</text>
  <text x="152" y="223" text-anchor="end" font-size="13" fill="#6a7d72" font-family="'Consolas', monospace">779c4b0</text>
  <circle cx="178" cy="210" r="11" fill="#2eb861" stroke="#fffaf2" stroke-width="3"/>
  <line x1="178" y1="210" x2="208" y2="210" stroke="#2eb861" stroke-width="3"/>
  <rect x="208" y="183" width="540" height="54" rx="12" fill="#ffffff" stroke="rgba(46,184,97,0.45)" stroke-width="1.5"/>
  <rect x="208" y="183" width="8" height="54" rx="4" fill="#2eb861"/>
  <text x="232" y="216" font-size="20" fill="#27483b">Ajout d'un access / error log</text>

  <!-- ===== Commit 3 (4 mai — réunion) ===== -->
  <text x="152" y="284" text-anchor="end" font-size="17" font-weight="700" fill="#183a2a">04 mai</text>
  <text x="152" y="303" text-anchor="end" font-size="13" fill="#6a7d72" font-family="'Consolas', monospace">d6eb734</text>
  <circle cx="178" cy="290" r="11" fill="#f59f0b" stroke="#fffaf2" stroke-width="3"/>
  <line x1="178" y1="290" x2="208" y2="290" stroke="#f59f0b" stroke-width="3"/>
  <rect x="208" y="263" width="540" height="54" rx="12" fill="#ffffff" stroke="rgba(245,159,11,0.55)" stroke-width="1.5"/>
  <rect x="208" y="263" width="8" height="54" rx="4" fill="#f59f0b"/>
  <text x="232" y="296" font-size="20" fill="#27483b">Upload des fichiers sur AWS S3</text>

  <!-- ===== Commit 4 (4 mai — réunion) ===== -->
  <text x="152" y="354" text-anchor="end" font-size="17" font-weight="700" fill="#183a2a">04 mai</text>
  <text x="152" y="373" text-anchor="end" font-size="13" fill="#6a7d72" font-family="'Consolas', monospace">9f021a5</text>
  <circle cx="178" cy="360" r="11" fill="#f59f0b" stroke="#fffaf2" stroke-width="3"/>
  <line x1="178" y1="360" x2="208" y2="360" stroke="#f59f0b" stroke-width="3"/>
  <rect x="208" y="333" width="540" height="54" rx="12" fill="#ffffff" stroke="rgba(245,159,11,0.55)" stroke-width="1.5"/>
  <rect x="208" y="333" width="8" height="54" rx="4" fill="#f59f0b"/>
  <text x="232" y="366" font-size="20" fill="#27483b">Sécurité : droits par access_level</text>

  <!-- ===== Commit 5 ===== -->
  <text x="152" y="434" text-anchor="end" font-size="17" font-weight="700" fill="#183a2a">07 mai</text>
  <text x="152" y="453" text-anchor="end" font-size="13" fill="#6a7d72" font-family="'Consolas', monospace">1cd364d</text>
  <circle cx="178" cy="440" r="11" fill="#2eb861" stroke="#fffaf2" stroke-width="3"/>
  <line x1="178" y1="440" x2="208" y2="440" stroke="#2eb861" stroke-width="3"/>
  <rect x="208" y="413" width="540" height="54" rx="12" fill="#ffffff" stroke="rgba(46,184,97,0.45)" stroke-width="1.5"/>
  <rect x="208" y="413" width="8" height="54" rx="4" fill="#2eb861"/>
  <text x="232" y="446" font-size="20" fill="#27483b">V1 de l'API — auth en session + Basic Auth</text>

  <!-- ===== Commit 6 ===== -->
  <text x="152" y="514" text-anchor="end" font-size="17" font-weight="700" fill="#183a2a">19 mai</text>
  <text x="152" y="533" text-anchor="end" font-size="13" fill="#6a7d72" font-family="'Consolas', monospace">99f57a9</text>
  <circle cx="178" cy="520" r="11" fill="#2eb861" stroke="#fffaf2" stroke-width="3"/>
  <line x1="178" y1="520" x2="208" y2="520" stroke="#2eb861" stroke-width="3"/>
  <rect x="208" y="493" width="540" height="54" rx="12" fill="#ffffff" stroke="rgba(46,184,97,0.45)" stroke-width="1.5"/>
  <rect x="208" y="493" width="8" height="54" rx="4" fill="#2eb861"/>
  <text x="232" y="526" font-size="20" fill="#27483b">Stripe : paiement et achat du panier</text>

  <!-- ===== Commit 7 (push GitHub) ===== -->
  <text x="152" y="614" text-anchor="end" font-size="17" font-weight="700" fill="#183a2a">04 juin</text>
  <text x="152" y="633" text-anchor="end" font-size="13" fill="#6a7d72" font-family="'Consolas', monospace">b4d869a</text>
  <circle cx="178" cy="620" r="11" fill="#183a2a" stroke="#fffaf2" stroke-width="3"/>
  <line x1="178" y1="620" x2="208" y2="620" stroke="#183a2a" stroke-width="3"/>
  <rect x="208" y="593" width="540" height="54" rx="12" fill="#ffffff" stroke="rgba(24,58,42,0.45)" stroke-width="1.5"/>
  <rect x="208" y="593" width="8" height="54" rx="4" fill="#183a2a"/>
  <text x="232" y="626" font-size="20" fill="#27483b">API v2</text>

  <!-- Badge push GitHub -->
  <line x1="748" y1="620" x2="766" y2="620" stroke="#183a2a" stroke-width="2.5"/>
  <rect x="766" y="596" width="214" height="48" rx="12" fill="#183a2a"/>
  <path d="M 786 632 V 612 M 779 619 L 786 612 L 793 619" fill="none" stroke="#ffffff" stroke-width="2.4" stroke-linecap="round" stroke-linejoin="round"/>
  <text x="804" y="618" font-size="15" font-weight="700" fill="#ffffff">Push sur GitHub</text>
  <text x="804" y="635" font-size="12" fill="#a9c5b6" font-family="'Consolas', monospace">origin/main</text>

  <!-- ===== Encart réunion de suivi ===== -->
  <path d="M 748 290 H 762 V 360 H 748" fill="none" stroke="#f59f0b" stroke-width="2.5"/>
  <line x1="762" y1="325" x2="782" y2="325" stroke="#f59f0b" stroke-width="2.5"/>
  <rect x="782" y="267" width="198" height="116" rx="14" fill="rgba(245,159,11,0.10)" stroke="#f59f0b" stroke-width="1.8"/>
  <text x="798" y="293" font-size="13" font-weight="800" letter-spacing="0.04em" fill="#8a4a09">RÉUNION DE SUIVI</text>
  <text x="798" y="314" font-size="15" font-weight="700" fill="#183a2a">4 mai 2026</text>
  <line x1="798" y1="325" x2="962" y2="325" stroke="rgba(245,159,11,0.45)" stroke-width="1"/>
  <text x="798" y="346" font-size="13.5" fill="#27483b">Retour du maître de stage :</text>
  <text x="798" y="365" font-size="13.5" fill="#27483b">• passage en session</text>
  <text x="798" y="381" font-size="13.5" fill="#27483b">• Basic Auth + access_level</text>
</svg>
